<svg width="15" height="15" viewBox="0 0 15 15" fill="none" xmlns="http://www.w3.org/2000/svg">
<path d="M1.50003 10H13.5V1.75H1.50003V10ZM8.25003 11.5V13H11.25V14.5H3.75003V13H6.75003V11.5H0.744031C0.645545 11.4994 0.548143 11.4794 0.457409 11.4411C0.366674 11.4028 0.284391 11.347 0.215274 11.2768C0.146157 11.2066 0.0915668 11.1235 0.054631 11.0322C0.0176953 10.9409 -0.00085936 10.8432 3.05595e-05 10.7448V1.00525C3.05595e-05 0.58825 0.341281 0.25 0.744031 0.25H14.256C14.667 0.25 15 0.58675 15 1.00525V10.7448C15 11.1618 14.6588 11.5 14.256 11.5H8.25003Z" fill="currentColor"/>
</svg>
