<svg width="15" height="16" viewBox="0 0 15 16" fill="none" xmlns="http://www.w3.org/2000/svg">
<path d="M7.035 0.51416C6.48235 1.02913 6.03908 1.65013 5.73164 2.34012C5.4242 3.03012 5.25889 3.77497 5.24556 4.53024C5.23224 5.28551 5.37117 6.03573 5.65408 6.73614C5.93699 7.43655 6.35807 8.07281 6.89221 8.60695C7.42635 9.14109 8.06261 9.56217 8.76302 9.84508C9.46343 10.128 10.2136 10.2669 10.9689 10.2536C11.7242 10.2403 12.469 10.075 13.159 9.76752C13.849 9.46008 14.47 9.01681 14.985 8.46416C14.7465 12.3904 11.487 15.4999 7.50075 15.4999C3.35775 15.4999 0 12.1422 0 7.99991C0 4.01366 3.1095 0.75416 7.035 0.51416Z" fill="white"/>
</svg>
