<svg width="26" height="26" viewBox="0 0 26 26" fill="none" xmlns="http://www.w3.org/2000/svg">
<path d="M13.0002 19.4999C11.2763 19.4999 9.62296 18.8151 8.40397 17.5961C7.18498 16.3771 6.50016 14.7238 6.50016 12.9999C6.50016 11.276 7.18498 9.62271 8.40397 8.40373C9.62296 7.18474 11.2763 6.49992 13.0002 6.49992C14.7241 6.49992 16.3774 7.18474 17.5964 8.40373C18.8153 9.62271 19.5002 11.276 19.5002 12.9999C19.5002 14.7238 18.8153 16.3771 17.5964 17.5961C16.3774 18.8151 14.7241 19.4999 13.0002 19.4999ZM11.9168 1.08325H14.0835V4.33325H11.9168V1.08325ZM11.9168 21.6666H14.0835V24.9166H11.9168V21.6666ZM3.80808 5.33967L5.33991 3.80784L7.63766 6.10559L6.10583 7.63742L3.80808 5.33967ZM18.3627 19.8943L19.8945 18.3624L22.1922 20.6602L20.6604 22.192L18.3627 19.8943ZM20.6604 3.80675L22.1922 5.33967L19.8945 7.63742L18.3627 6.10559L20.6604 3.80784V3.80675ZM6.10583 18.3624L7.63766 19.8943L5.33991 22.192L3.80808 20.6602L6.10583 18.3624ZM24.9168 11.9166V14.0833H21.6668V11.9166H24.9168ZM4.3335 11.9166V14.0833H1.0835V11.9166H4.3335Z" fill="black"/>
</svg>
